<?xml version="1.0" encoding="UTF-8" standalone="no"?>
<svg
   fill="none"
   viewBox="0 0 82.371002 25.620001"
   version="1.1"
   id="svg1"
   width="82.371002"
   height="25.620001"
   xmlns="http://www.w3.org/2000/svg"
   xmlns:svg="http://www.w3.org/2000/svg">
  <defs
     id="defs1" />
  <path
     fill="#382b75"
     d="m 60.237,14.655 v 10.578 h -5.62 V 6.713 h 5.62 v 1.862 c 1.02,-1.195 2.706,-2.25 5.06,-2.25 2.213,0 4.04,0.95 5.094,2.531 1.054,-1.16 2.88,-2.53 5.726,-2.53 3.76,0 6.254,2.635 6.254,6.677 v 12.23 H 76.75 V 14.62 c 0,-1.863 -0.738,-3.234 -2.53,-3.234 -1.475,0 -2.916,1.09 -2.916,3.269 V 25.233 H 65.683 V 14.62 c 0,-1.863 -0.703,-3.234 -2.53,-3.234 -1.475,0 -2.916,1.09 -2.916,3.269 z M 45.283,4.815 V 0 L 51.01,1.407 V 4.815 Z M 50.94,6.712 V 25.233 H 45.318 V 6.713 H 50.94 Z M 34.192,25.62 c -5.586,0 -9.38,-3.901 -9.38,-9.665 0,-5.482 3.935,-9.63 9.275,-9.63 5.621,0 8.678,4.148 8.678,9.384 v 1.476 H 30.222 c 0.387,2.53 1.898,3.971 4.04,3.971 1.757,0 3.127,-0.843 3.654,-2.46 l 4.708,1.512 c -1.37,3.55 -4.743,5.412 -8.432,5.412 z M 34.017,10.683 c -1.722,0 -3.057,1.02 -3.619,3.058 h 6.816 C 37.179,12.089 36.09,10.683 34.017,10.683 Z M 16.126,0 h 5.867 V 25.233 H 16.126 V 14.831 H 5.867 V 25.233 H 0 V 0 h 5.867 v 9.84 h 10.259 z"
     id="path1" />
</svg>